HIERARCHY
ROOT Spine
{
    OFFSET 0.0 0.0 -0.0
    CHANNELS 6 Xposition Yposition Zposition Zrotation Xrotation Yrotation
    JOINT ShoulderCenter
    {
        OFFSET 0.0 32.914581298828125 0.0
        CHANNELS 3 Zrotation Xrotation Yrotation
        JOINT LeftShoulder
        {
            OFFSET 18.777008056640625 0.0 0.0
            CHANNELS 3 Zrotation Xrotation Yrotation
            JOINT LeftElbow
            {
                OFFSET 28.852981567382812 0.0 0.0
                CHANNELS 3 Zrotation Xrotation Yrotation
                JOINT LeftHand
                {
                    OFFSET 32.80236053466797 0.0 0.0
                    CHANNELS 3 Zrotation Xrotation Yrotation
                    End Site
                    {
                        OFFSET 13.12094497680664 0.0 0.0
                    }
                }
            }
        }
        JOINT RightShoulder
        {
            OFFSET -18.777008056640625 0.0 0.0
            CHANNELS 3 Zrotation Xrotation Yrotation
            JOINT RightElbow
            {
                OFFSET -28.852981567382812 0.0 0.0
                CHANNELS 3 Zrotation Xrotation Yrotation
                JOINT RightHand
                {
                    OFFSET -32.80236053466797 0.0 0.0
                    CHANNELS 3 Zrotation Xrotation Yrotation
                    End Site
                    {
                        OFFSET -13.12094497680664 0.0 0.0
                    }
                }
            }
        }
        End Site
        {
            OFFSET 0.0 13.16583251953125 0.0
        }
    }
    JOINT LeftHip
    {
        OFFSET 16.243934895759498 -16.243934895759498 0.0
        CHANNELS 3 Zrotation Xrotation Yrotation
        JOINT LeftKnee
        {
            OFFSET 0.0 -41.178192138671875 0.0
            CHANNELS 3 Zrotation Xrotation Yrotation
            JOINT LeftFoot
            {
                OFFSET 0.0 -44.44248962402344 0.0
                CHANNELS 3 Zrotation Xrotation Yrotation
                End Site
                {
                    OFFSET 0.0 0.0 17.776996612548828
                }
            }
        }
    }
    JOINT RightHip
    {
        OFFSET -16.243934895759498 -16.243934895759498 0.0
        CHANNELS 3 Zrotation Xrotation Yrotation
        JOINT RightKnee
        {
            OFFSET 0.0 -41.178192138671875 0.0
            CHANNELS 3 Zrotation Xrotation Yrotation
            JOINT RightFoot
            {
                OFFSET 0.0 -44.44248962402344 0.0
                CHANNELS 3 Zrotation Xrotation Yrotation
                End Site
                {
                    OFFSET 0.0 0.0 17.776996612548828
                }
            }
        }
    }
}
MOTION
Frames: 13
Frame Time: 0.03333333333333333
-129.60000610351562 10.300000190734863 36.5 -0.5208617114180121 2.4291757805569656 52.483219465600456 -8.251547941082941e-08 -1.701905584968023e-07 4.54151636643341 126.80432043011754 18.833521281433168 -134.10628788473468 -1.3022306204914726e-08 -2.2735950364440464e-06 67.18677159887093 0.0 0.0 0.0 -126.04192696318806 5.4103922559644 133.94071295433537 -6.044168019710912e-07 -2.0885193764360475e-06 -62.76489201572496 -6.3611093629270335e-15 6.3611093629270335e-15 1.5902773407317588e-15 -11.51559760004147 -8.995501417506272 -17.774082677790396 -2.7533412924242975 2.476929959418133 -3.9536912976828713 7.951386703658791e-16 1.7241821476758433e-32 2.484808344893372e-15 -7.9546321791848955 -27.00718072700425 -35.517842992798485 -39.00375806515936 37.09242174286565 123.92986007148198 1.5902773407317584e-15 1.5902773407317582e-15 -7.355032700884382e-15
-127.80000305175781 9.899999618530273 38.20000076293945 0.17362043644552333 2.4292583964662056 56.26811192690013 2.8066299858253746e-08 7.677128953808274e-09 2.4473277408894045 131.78561299614316 21.920268242065067 -129.09787318423136 3.2260653241003072e-06 1.6673384336756958e-06 66.04819134454907 3.1805546814635168e-15 -7.951386703658792e-16 2.2069531490250793e-32 -129.51567119467313 7.515379316952633 127.14381490242941 -2.5789591456693146e-06 -4.296626435851972e-08 -64.65637495047201 -3.1805546814635168e-15 -2.2069531490250793e-32 7.951386703658792e-16 -11.914568575424667 -7.139439349227652 -20.043662878550787 -3.993875357954823 3.175252297276688 -4.871714340996225 1.590277340731758e-15 7.862270593401845e-32 5.665363026356888e-15 -8.767158323947776 -28.46002461341639 -40.28487192072704 -36.94647283718811 30.171267056444957 123.59962919229021 -1.1927080055488188e-15 3.9311352967009226e-32 -3.776908684237926e-15
-126.10000610351562 9.800000190734863 40.29999923706055 0.5208617094109986 1.9090776213229077 60.17784877473885 -5.320570844600212e-08 7.053347498295728e-08 1.8546004372457523 135.84866997612923 24.745947505539412 -123.16021079901155 3.249846191400812e-06 -3.334007336081821e-06 63.81468023581446 3.531125038440127e-31 -6.3611093629270335e-15 6.3611093629270335e-15 -132.2985781198425 10.924999996276867 122.12835988032127 3.1452144937333284e-06 3.933129550021708e-06 -65.85939519222083 -3.310429723537619e-32 -6.361109362927033e-15 -5.963540027744093e-16 -11.493643944794295 -4.465660782862635 -22.124457134299725 -4.413578670755074 2.982834604529255 -4.407896955005389 0.0 0.0 2.286023677301902e-15 -8.411364210691817 -28.80877067449698 -43.728025659233694 -32.63253505365251 22.367252774185005 121.90009981171774 -4.1380371544220234e-32 1.5902773407317584e-15 2.9817700138720468e-15
-124.39999389648438 9.800000190734863 41.80000305175781 -0.17308261170186076 1.5574898771547439 63.41044353362444 7.81913561220449e-08 8.030909030452411e-08 2.4853517273861656 135.88282327996427 26.961883172253742 -114.18408604511356 1.9403081028960933e-06 -7.907281173204185e-07 60.056651746119634 8.827812596100317e-32 1.5902773407317584e-15 -6.3611093629270335e-15 -133.74137072686545 15.377780206709367 116.55589582205644 -2.312534814922859e-06 3.1079447091381098e-06 -65.70243983168844 0.0 0.0 -1.5902773407317584e-15 -10.48908900227042 -2.871583214353592 -26.675088050415823 -4.83694167932226 1.9212998356148663 -2.786962642711792 -1.5902773407317584e-15 1.987846675914698e-15 2.782985346280577e-15 -7.842703335296593 -29.444094080390943 -43.15471968298772 -25.224609390100554 16.232809901386325 109.78035095841398 0.0 0.0 1.279676297620087e-15
-122.39999389648438 9.700000762939453 43.5 -0.3472376086285409 1.0416115818554894 66.12661116284498 -1.2496270263504202e-08 4.3881599212169746e-08 2.935307429777162 137.2476858372069 29.466692476904708 -107.99688986348976 8.533019172344109e-07 -4.991432969759878e-06 56.54807052649203 -1.5902773407317584e-15 1.5902773407317584e-15 6.3611093629270335e-15 -134.8127091902157 19.32385739043036 111.24514072264628 -6.825906337169095e-07 2.341935601044727e-06 -64.51056074175608 -4.4139062980501586e-32 -3.1805546814635168e-15 -1.5902773407317584e-15 -9.309064509085678 -0.9049591762262381 -29.257609389443303 -5.010747639338496 0.935067088683614 -1.3627959444876252 0.0 0.0 -1.5902773407317582e-15 -7.297070346465505 -28.832221590091585 -42.14878547654506 -17.106211441387853 9.845198636803122 74.35309819281264 -7.951386703658792e-16 7.951386703658792e-16 -2.3854160110976376e-15
-120.29999542236328 10.0 45.20000076293945 -0.5208351438911156 1.5621564857111192 68.52667004460922 -7.669726976918145e-08 -1.2543496648149873e-07 3.557380807977814 135.6119223912679 31.651737670176203 -100.7672911496956 -3.029155315350635e-06 -2.6952007235502024e-07 52.06948026709371 -1.5902773407317584e-15 1.5902773407317584e-15 -6.3611093629270335e-15 -136.11308970273265 22.88528975391113 106.15666823405975 7.994381327280895e-07 9.714708146921504e-07 -62.354333333812825 0.0 0.0 0.0 -8.964078344310149 1.4211486480799698 -33.028561947889955 -4.784232809826286 -1.1976306142803859 1.7348100849271524 -6.896728590703373e-34 -3.975693351829396e-16 -1.987846675914698e-16 -7.95489189544354 -29.091619114094442 -44.33401072647371 -10.575016289590238 3.6131706410395057 20.735166809515903 7.951386703658791e-16 -3.9756933518293955e-16 2.9817700138720468e-15
-117.99999237060547 9.899999618530273 46.79999923706055 -0.3472376003455838 0.6944501960732101 70.94293145438985 3.5614414385539384e-08 4.912943382014099e-09 1.4899584985066212 137.82751696806108 35.03462376703194 -98.91012964437083 4.1126296832643255e-06 1.4717981871767933e-06 49.33094167417342 1.5902773407317584e-15 0.0 0.0 -134.55199653260414 23.59143592266829 99.58859982327466 3.913708105672302e-06 -3.2264954202423343e-07 -59.19089611255477 -6.361109362927035e-15 3.1805546814635176e-15 -3.1805546814635176e-15 -7.657491566741511 3.4561760414865206 -35.61191671097382 -5.251255169183162 -1.041566250190346 1.4966649318386156 1.5902773407317584e-15 7.951386703658792e-16 2.981770013872047e-16 -7.3379574393843345 -28.236621973877728 -43.579478884990706 -4.595753580469645 0.3097370490801377 1.1044599828858581 -1.5902773407317584e-15 -3.1805546814635168e-15 1.5902773407317584e-15
-115.9000015258789 9.800000190734863 48.5 -1.041624066269007 0.5207690088540082 73.43940896236732 -1.784925064607698e-09 -1.1909354418485682e-08 3.207280449297719 135.27173931127638 35.12786293447885 -92.20910352566439 -1.1811957443368727e-06 -7.226788667050994e-06 46.87251764782734 -6.361109362927033e-15 1.5902773407317582e-15 8.827812596100317e-32 -134.02859167700439 27.773325790938408 95.82262118862785 6.123440557603468e-07 2.994709682332736e-07 -56.04849807450236 -6.3611093629270335e-15 0.0 0.0 -6.223960522308667 3.59740271429479 -38.10302620951862 -6.950979464398254 -0.014452109598216032 0.02012209479734473 0.0 0.0 3.578124016646457e-15 -6.481188002148488 -28.17235266307034 -40.45643840749673 -1.2437254496761407 -0.8957037247926976 -2.5383940146375545 -3.034560579909484e-32 7.951386703658791e-16 4.373262687012335e-15
-113.69999694824219 9.700000762939453 50.099998474121094 -1.2188700189813293 -1.8994543998163718e-08 75.27081877863957 -1.9471913554287656e-08 -5.8844086068866454e-08 3.2801210582911704 135.14310268255178 36.28185355398199 -88.21571103726421 -1.5686608071513025e-06 -6.678063236103564e-08 43.66605853646792 -6.3611093629270335e-15 -7.062250076880254e-31 1.2722218725854067e-14 -131.0194456727906 28.04448258020493 90.07735640884567 8.444617231861709e-07 2.807989976864549e-06 -52.15171086416231 -6.361109362927033e-15 0.0 0.0 -4.919740868792282 5.2400126756548895 -41.34628735421248 -6.9913106385134824 -0.7734082990107135 1.0608239209444719 -1.5902773407317584e-15 -1.2414111463266072e-32 8.945310041616142e-16 -5.053206429799547 -28.259797245339822 -39.412151009910424 -1.0838317875136707 1.6942065618064452 4.615783715085737 -5.517382872562698e-32 3.1805546814635168e-15 1.987846675914698e-15
-111.30000305175781 9.700000762939453 51.89999771118164 -2.082573553375554 1.0409363305331756 78.03904810723687 1.0145761155414245e-07 -1.0448949065435644e-07 2.900055656392557 134.34906752499833 37.81207605939807 -85.30686301861617 -1.634434852622021e-06 7.797507307458113e-06 42.471880154907645 4.770832022195275e-15 0.0 0.0 -130.00827220494475 29.569041202441877 85.27829357206204 5.650107781811841e-07 2.573835773290909e-06 -49.02048296757561 0.0 0.0 3.1805546814635168e-15 -4.6373641686687606 5.174153761984796 -43.31239249818632 -7.889642073470355 -0.33146004280333097 0.43775176671923993 4.138037154422024e-33 -7.951386703658792e-16 5.963540027744094e-16 -4.719419759100522 -28.949178785724463 -37.32617116266577 -1.9177005436046601 4.930690701292619 13.415133671423805 -1.5902773407317584e-15 7.951386703658792e-16 7.951386703658792e-16
-108.80000305175781 9.700000762939453 53.70000076293945 -2.2559325369239898 1.0408171978571 81.57515657551457 -8.29267892333299e-08 -2.165950008002089e-08 2.342940725850423 134.226582508956 37.775074690121905 -82.22508988513563 -1.1205731846573116e-06 1.2329507554233347e-06 39.644553230576655 0.0 -1.5902773407317584e-15 0.0 -129.38726053979266 31.035258621175387 82.5455347009248 -1.0248985270491662e-06 8.93723452659653e-07 -46.16361915603827 0.0 0.0 0.0 -3.2573097199216043 5.150043930036116 -45.82559502404507 -9.899581783913188 1.7501581674697362 -2.193741482377374 6.48292487526117e-32 -7.95138670365879e-16 9.342879376799079e-15 -3.614780361807939 -27.780519965524615 -32.121841008142674 -2.7315549849346676 6.438413514584267 18.1522854120124 1.5902773407317582e-15 -7.951386703658792e-16 -4.373262687012335e-15
-106.4000015258789 9.899999618530273 55.400001525878906 -1.735704432734112 -1.0411527803756973 85.33969239242904 1.215458186872217e-08 1.6783612040385843e-07 1.2261212134250026 138.40425617797686 37.950741404713 -82.00576840969293 -2.286987418303784e-06 -2.862764004940905e-06 37.90511473645851 3.975693351829396e-15 -1.1034765745125397e-31 -3.1805546814635168e-15 -128.3548199998366 32.01387769458651 81.54374883824644 4.513711798818179e-06 2.575391638927731e-06 -43.80141250923826 8.827812596100317e-32 3.1805546814635164e-15 -3.1805546814635164e-15 0.4216703379949212 4.135661215469445 -46.80613405488137 -13.692416598471869 5.485076871428883 -6.798884326358204 0.0 0.0 -9.93923337957349e-17 -0.8179640601948134 -25.645872794777272 -27.118516218547196 -4.1357892456762935 6.969543872399088 20.063614745300935 0.0 0.0 6.559894030518502e-15
-104.20000457763672 10.100000381469727 56.80000305175781 -1.7409902715296068 -1.740173884948352 88.37098699086025 4.363032909152637e-08 1.0485378108448058e-07 0.23345179586843193 142.4056531975622 39.083771345659365 -83.35489292783916 3.1432119051070782e-06 4.110505230444575e-06 36.748248171746745 7.156248033292914e-15 1.5902773407317582e-15 -3.1805546814635168e-15 -129.89043414347046 33.65124963826212 81.2411104631616 3.135334356651936e-06 1.6358095925305744e-06 -42.33036762211697 0.0 0.0 3.1805546814635168e-15 2.125156588783965 1.4369467635024489 -44.935025513426126 -16.93761902864075 10.529219270275226 -12.765011794161662 0.0 0.0 -2.7829853462805768e-15 -0.0690067599355776 -24.62531420114993 -24.342314682509755 -4.880836968991009 8.239535148478364 24.164446188913907 7.951386703658794e-16 -8.965747167914385e-33 -1.292100339344554e-15
